<svg xmlns="http://www.w3.org/2000/svg" xmlns:xlink="http://www.w3.org/1999/xlink" width="300" zoomAndPan="magnify" viewBox="0 0 224.87999 225" height="300" preserveAspectRatio="xMidYMid meet" version="1.0"><defs><clipPath id="4c62d4bd08"><path d="M 53.1875 53.25 L 171.625 53.25 L 171.625 171.6875 L 53.1875 171.6875 Z M 53.1875 53.25 " clip-rule="nonzero"/></clipPath></defs><g clip-path="url(#4c62d4bd08)"><path fill="#ffd600" d="M 53.1875 53.25 L 171.625 53.25 L 171.625 171.6875 L 53.1875 171.6875 Z M 53.1875 53.25 " fill-opacity="1" fill-rule="nonzero"/></g><path fill="#000001" d="M 130.625 141.902344 C 132.902344 145.601562 135.378906 149.144531 140.617188 149.144531 C 145.019531 149.144531 147.328125 146.957031 147.328125 143.929688 C 147.328125 140.304688 144.941406 139.019531 140.097656 136.910156 L 137.445312 135.78125 C 129.78125 132.527344 124.683594 128.457031 124.683594 119.851562 C 124.683594 111.925781 130.753906 105.890625 140.238281 105.890625 C 146.992188 105.890625 151.847656 108.230469 155.347656 114.355469 L 147.078125 119.640625 C 145.257812 116.390625 143.289062 115.113281 140.238281 115.113281 C 137.128906 115.113281 135.15625 117.078125 135.15625 119.640625 C 135.15625 122.8125 137.132812 124.097656 141.6875 126.0625 L 144.34375 127.191406 C 153.375 131.039062 158.464844 134.96875 158.464844 143.796875 C 158.464844 153.3125 150.953125 158.527344 140.863281 158.527344 C 131 158.527344 125.394531 153.574219 122.277344 147.445312 Z M 92.511719 142.171875 C 94.175781 145.152344 96.703125 147.445312 100.34375 147.445312 C 103.824219 147.445312 105.828125 146.070312 105.828125 140.722656 L 105.828125 105.886719 L 116.792969 105.886719 L 116.792969 142.410156 C 116.792969 153.484375 110.367188 158.527344 100.984375 158.527344 C 92.507812 158.527344 86.386719 152.78125 83.894531 147.445312 Z M 92.511719 142.171875 " fill-opacity="1" fill-rule="nonzero"/></svg>